<svg width="24" height="24" viewBox="0 0 24 24" fill="none" xmlns="http://www.w3.org/2000/svg">
<path d="M20 12.9995V19.9995C20 20.2647 19.8946 20.5191 19.7071 20.7066C19.5196 20.8942 19.2652 20.9995 19 20.9995H5C4.73478 20.9995 4.48043 20.8942 4.29289 20.7066C4.10536 20.5191 4 20.2647 4 19.9995V12.9995H20ZM14.5 1.99952C15.0906 1.99931 15.6717 2.14859 16.1892 2.43345C16.7066 2.7183 17.1435 3.12946 17.4592 3.62865C17.7749 4.12783 17.9592 4.6988 17.9948 5.28837C18.0305 5.87794 17.9163 6.46694 17.663 7.00052L21 6.99952C21.2652 6.99952 21.5196 7.10487 21.7071 7.29241C21.8946 7.47995 22 7.7343 22 7.99952V10.9995C22 11.2647 21.8946 11.5191 21.7071 11.7066C21.5196 11.8942 21.2652 11.9995 21 11.9995H3C2.73478 11.9995 2.48043 11.8942 2.29289 11.7066C2.10536 11.5191 2 11.2647 2 10.9995V7.99952C2 7.7343 2.10536 7.47995 2.29289 7.29241C2.48043 7.10487 2.73478 6.99952 3 6.99952L6.337 7.00052C5.98076 6.25219 5.90163 5.40172 6.1137 4.60052C6.32577 3.79931 6.81529 3.09936 7.4951 2.62527C8.17491 2.15118 9.0009 1.93371 9.82603 2.01158C10.6512 2.08946 11.4219 2.45761 12.001 3.05052C12.326 2.71704 12.7147 2.45219 13.1439 2.27166C13.5732 2.09113 14.0343 1.99859 14.5 1.99952ZM9.5 3.99952C9.11478 3.99971 8.74441 4.14809 8.46561 4.41392C8.18682 4.67976 8.02099 5.04266 8.00248 5.42743C7.98396 5.8122 8.11419 6.18935 8.36618 6.48072C8.61816 6.77209 8.97258 6.95534 9.356 6.99252L9.5 6.99952H11V5.49952C11 5.12663 10.8611 4.76712 10.6104 4.4911C10.3597 4.21507 10.0152 4.04231 9.644 4.00652L9.5 3.99952ZM14.5 3.99952L14.356 4.00652C14.0094 4.03972 13.6851 4.19249 13.4388 4.43863C13.1925 4.68476 13.0395 5.00892 13.006 5.35552L13 5.49952V6.99952H14.5L14.644 6.99252C15.015 6.95654 15.3594 6.78371 15.6099 6.5077C15.8605 6.23169 15.9993 5.87228 15.9993 5.49952C15.9993 5.12675 15.8605 4.76734 15.6099 4.49133C15.3594 4.21532 15.015 4.04249 14.644 4.00652L14.5 3.99952Z" fill="white"/>
</svg>
